# Blender 5.0.1
# www.blender.org
mtllib door.mtl
o Door
v 6.019997 5.288615 -1.998650
v 6.297042 5.306668 -2.279033
v 5.986315 5.290397 -2.031615
v 6.285620 5.295063 -2.367087
v 5.720637 5.299441 -1.794165
v 5.988089 5.306120 -2.101508
v 5.743304 5.310575 -1.759064
v 5.990496 5.304393 -1.998297
v 5.545399 5.263865 -1.553282
v 5.723467 5.253497 -1.761469
v 5.578410 5.262102 -1.510998
v 5.738834 5.254133 -1.669750
v 5.359110 5.273712 -1.352254
v 5.588745 5.202569 -1.576540
v 5.341191 5.261288 -1.400092
v 5.563341 5.203948 -1.662208
v 5.319425 2.196239 -1.378348
v 5.547029 2.183091 -1.509554
v 5.291172 2.194198 -1.422457
v 5.518180 2.174786 -1.588043
v 5.755660 2.193367 -1.910506
v 5.772182 2.191607 -1.827535
v 5.549663 2.194622 -1.602254
v 5.517260 2.192888 -1.648836
v 5.688541 2.193778 -1.807246
v 5.951128 2.195128 -2.106573
v 5.713651 2.193655 -1.769058
v 5.958912 2.193868 -1.994098
v 6.235117 2.195159 -2.261786
v 5.924638 2.190387 -2.019351
v 6.227037 2.189639 -2.355310
v 4.909652 5.300794 -0.978395
v 5.071940 5.295444 -1.179500
v 4.942381 5.298227 -0.936098
v 5.092985 5.295857 -1.084190
v 5.104862 5.288877 -1.106139
v 5.358876 5.285684 -1.350077
v 5.072463 5.304593 -1.138798
v 5.342753 5.285430 -1.443023
v 5.044167 2.194288 -1.211572
v 5.050992 2.193822 -1.114549
v 4.900758 2.193837 -0.964049
v 4.860826 2.194894 -0.999301
v 5.319138 2.191697 -1.379404
v 5.305582 2.194860 -1.470881
v 5.056144 2.198236 -1.129364
v 5.021024 2.196869 -1.156607
v 5.946802 4.689873 -2.115201
v 5.720672 4.752918 -1.781609
v 5.704895 4.750154 -1.841541
v 5.927729 4.692810 -1.966767
v 5.969733 2.193546 -2.015026
v 5.969117 5.262379 -2.067616
v 6.068723 5.249954 -1.956670
v 6.051340 5.250501 -2.152266
v 6.159852 5.252079 -2.055500
v 5.922912 2.186010 -2.082917
v 6.039660 2.185285 -1.956496
v 6.009592 2.185947 -2.173644
v 6.127203 2.185240 -2.055539
v 5.705103 3.771315 -1.772020
v 5.726870 3.748656 -1.714591
v 5.536667 3.754341 -1.600611
v 5.446950 3.777080 -1.590834
v 5.710929 3.749519 -1.801952
v 5.689158 3.772178 -1.859351
v 5.569375 3.754624 -1.556184
v 5.479657 3.777364 -1.546394
v 6.285746 5.110643 -2.199749
v 6.287689 4.883687 -2.195198
v 6.271193 5.110525 -2.227129
v 6.252435 4.848673 -2.230246
v 5.002556 4.888433 -0.954580
v 4.969996 4.852918 -0.989721
v 5.001050 5.122262 -0.961424
v 4.980393 5.125853 -0.980965
v 6.285745 2.614892 -2.199748
v 6.287689 2.387936 -2.195197
v 6.271192 2.614773 -2.227129
v 6.252434 2.352921 -2.230244
v 5.002555 2.392681 -0.954580
v 4.969995 2.357166 -0.989721
v 5.001050 2.626511 -0.961423
v 4.980392 2.630101 -0.980964
v 5.953439 5.154061 -1.898824
v 6.069201 5.023208 -2.055724
v 5.986893 5.155148 -1.857180
v 6.100008 5.049358 -1.969704
v 5.108884 2.320299 -1.139284
v 5.127117 2.351216 -1.053088
v 5.013928 2.455663 -0.937687
v 4.974571 2.458208 -0.973487
vn -0.0898 0.9948 -0.0473
vn -0.7447 0.0118 -0.6673
vn -0.0612 0.9965 -0.0567
vn -0.6507 0.0150 0.7592
vn 0.9943 -0.0198 -0.1049
vn 0.0454 0.9989 -0.0080
vn -0.7970 -0.0138 0.6038
vn 0.9495 -0.0209 -0.3129
vn -0.8942 0.0095 0.4475
vn 0.1421 0.9816 -0.1273
vn -0.6892 0.0046 -0.7246
vn 0.6135 -0.0029 0.7897
vn -0.8114 -0.0569 0.5817
vn 0.7039 -0.0115 0.7102
vn 0.6786 -0.0439 0.7332
vn 0.6799 -0.0251 0.7328
vn 0.6803 -0.0199 0.7327
vn 0.0293 0.9996 0.0042
vn 0.9896 -0.0097 -0.1434
vn -0.6630 0.0058 0.7486
vn -0.7440 0.0156 -0.6680
vn 0.1208 0.9898 0.0752
vn -0.7670 0.0149 -0.6415
vn 0.9872 -0.0108 -0.1590
vn -0.7296 0.0052 0.6839
vn 0.7043 -0.0162 0.7097
vn 0.6906 -0.0160 0.7231
vn 0.9851 -0.0031 -0.1722
vn -0.9274 0.0085 0.3739
vn -0.9252 0.0081 0.3795
vn -0.9254 0.0082 0.3790
vn 0.9998 -0.0169 0.0103
vn 0.9997 -0.0197 0.0113
vn 1.0000 0.0093 0.0019
vn -0.7491 0.0379 -0.6614
vn -0.7468 0.0712 -0.6613
vn -0.7495 0.0302 -0.6614
vn 0.6813 -0.0005 0.7320
vn -0.9231 0.0077 0.3845
vn -0.7507 -0.0038 -0.6606
vn 0.9943 -0.0833 0.0663
vn 0.7422 -0.0075 0.6701
vn -0.7197 0.0145 -0.6941
vn 0.0541 0.9985 -0.0020
vn 0.6888 -0.0058 -0.7249
vn -0.7388 0.0074 0.6738
vn 0.9813 0.0478 -0.1863
vn -0.7409 -0.0089 -0.6715
vn -0.7574 0.0244 -0.6525
vn 0.7095 0.0059 0.7047
vn -0.0266 -0.9996 0.0054
vn 0.0202 0.9998 -0.0031
vn 0.7054 -0.0261 0.7083
vn -0.0126 -0.9959 0.0899
vn -0.0041 -1.0000 0.0013
vn -0.0084 -0.9999 -0.0103
vn 0.0581 -0.9968 0.0548
vn -0.0104 -0.9999 -0.0078
vn -0.0219 -0.9997 -0.0061
vn -0.0034 -1.0000 -0.0026
vn 0.0474 0.9981 0.0383
vn -0.6937 0.0538 -0.7183
vn 0.7893 -0.0289 -0.6134
vn 0.4056 -0.8105 0.4226
vn 0.6942 0.0230 0.7195
vn -0.7195 0.0100 0.6944
vn 0.7892 -0.0289 -0.6134
vn 0.4076 0.8293 -0.3821
vn 0.9170 -0.3747 -0.1370
vn -0.7658 0.0565 -0.6406
vn -0.6480 0.4456 0.6176
vn 0.7039 -0.0122 0.7102
vn -0.3904 -0.8389 0.3794
vt 0.607292 0.689738
vt 0.508291 0.690735
vt 0.509268 0.735631
vt 0.607292 0.736466
vt 0.710518 0.711354
vt 0.710519 -0.366415
vt 0.458230 -0.366415
vt 0.458229 0.711354
vt 0.692673 0.416884
vt 0.588041 0.416884
vt 0.586933 0.460767
vt 0.697449 0.461677
vt 1.048491 0.711354
vt 1.048491 -0.366415
vt 0.972238 -0.366415
vt 0.972237 0.711354
vt 0.716537 0.711354
vt 0.716537 -0.366415
vt 0.656489 -0.366415
vt 0.656488 0.711354
vt 0.494362 0.634322
vt 0.496710 0.691215
vt 0.585556 0.691336
vt 0.585556 0.631720
vt 1.048491 2.135760
vt 1.048491 1.061644
vt 0.972236 1.061649
vt 0.972236 2.135760
vt 0.240346 1.542077
vt 0.240347 0.464308
vt 0.177399 0.464308
vt 0.177397 1.542077
vt 0.511564 1.084482
vt 0.511564 0.006713
vt 0.448616 0.006714
vt 0.448615 1.084483
vt 0.594228 0.583311
vt 0.594228 0.525621
vt 0.504258 0.528027
vt 0.502809 0.575442
vt 0.161476 0.382311
vt 0.161477 -0.695458
vt 0.001831 -0.695458
vt 0.001830 0.382311
vt 0.154196 0.464308
vt -0.005450 0.464307
vt -0.005451 1.542077
vt 0.154195 1.542077
vt 0.816319 0.988951
vt 0.816319 0.573342
vt 0.766698 0.573342
vt 0.766698 0.988949
vt 0.481255 -0.393871
vt 0.481253 0.683899
vt 0.679926 0.683899
vt 0.679927 -0.393870
vt 0.678548 1.892924
vt 0.678548 1.661703
vt 0.507720 1.662391
vt 0.507720 1.892924
vt 0.494362 0.393707
vt 0.496710 0.450600
vt 0.585556 0.450721
vt 0.585556 0.391105
vt 0.719948 -0.404763
vt 0.643694 -0.404763
vt 0.643692 1.750775
vt 0.719947 1.750775
vt 0.448615 -0.322809
vt 0.511564 -0.322809
vt 0.511564 -1.400578
vt 0.448616 -1.400578
vt 0.186897 -0.322809
vt 0.186897 -1.400578
vt -0.021372 -1.400578
vt -0.021372 -0.322809
vt 0.508291 0.632933
vt 0.510352 0.687496
vt 0.599869 0.689618
vt 0.599869 0.632942
vt 0.391405 -0.404763
vt 0.391403 1.750775
vt 0.240346 -0.322809
vt 0.240347 -1.400578
vt 0.177399 -1.400578
vt 0.177397 -0.322809
vt 1.048491 1.750775
vt 1.048491 -0.404763
vt 0.972237 -0.404763
vt 0.972236 1.750775
vt -0.030871 -1.400578
vt -0.030872 -0.322809
vt 0.719947 1.061654
vt 0.643693 1.061657
vt 0.643692 2.135760
vt 0.719947 2.135760
vt 0.730180 1.892924
vt 0.730180 1.663035
vt 0.456087 1.662407
vt 0.507720 0.711354
vt 0.456088 0.711354
vt 0.063789 1.665918
vt 0.063789 1.895806
vt 0.234617 1.895807
vt 0.234617 1.665290
vt 0.678548 0.711354
vt 0.730180 0.711354
vt 0.063790 0.714237
vt 0.234618 0.714237
vt 0.456087 1.892924
vt 0.602525 0.573342
vt 0.552905 0.573342
vt 0.552904 0.988945
vt 0.602525 0.988947
vt 0.661179 0.556526
vt 0.497007 0.556526
vt 0.497006 0.972135
vt 0.661179 0.972130
vt 0.391404 1.061643
vt 0.391403 2.135760
vt 0.177012 0.416076
vt -0.003364 0.417596
vt -0.001824 0.400983
vt 0.210608 0.393574
vt 0.155934 0.468539
vt 0.273373 0.468539
vt 0.297285 0.482985
vt 0.158474 0.479337
vt 0.202890 0.470663
vt -0.020355 0.478097
vt -0.005621 0.445449
vt 0.202890 0.449879
vt 0.260112 0.388669
vt -0.020355 0.388669
vt 0.019428 0.361676
vt 0.270132 0.366732
vt 0.304760 0.174347
vt 0.295132 0.191801
vt -0.020355 0.191801
vt 0.024458 0.162333
vt 0.030452 0.104738
vt 0.334492 0.115177
vt 0.337779 0.132081
vt -0.020355 0.132081
vt 0.201865 0.504730
vt -0.020355 0.505928
vt 0.033696 0.478463
vt 0.201865 0.483620
vt 0.026137 0.192166
vt 0.312940 0.202962
vt 0.315559 0.220539
vt -0.020355 0.220540
vt 0.299031 0.313432
vt 0.431093 0.313432
vt 0.437755 0.365692
vt 0.301507 0.363126
vt 0.490845 0.747147
vt 0.526543 0.747147
vt 0.526543 0.135952
vt 0.490845 0.135952
vt 0.342426 0.747147
vt 0.342427 0.135952
vt 0.224319 0.135952
vt 0.224318 0.747147
vt 0.524686 1.289141
vt 0.525855 1.320083
vt 0.576620 1.321287
vt 0.576620 1.289146
vt 0.372737 0.747147
vt 0.372737 0.135952
vt 0.337040 0.135952
vt 0.337039 0.747147
vt 0.218932 0.135952
vt 0.218931 0.747147
vt 0.251260 1.039185
vt 0.413904 1.045308
vt 0.415390 1.055276
vt 0.224895 1.055276
vt 0.850490 0.945572
vt 0.886188 0.945572
vt 0.886188 0.334377
vt 0.850491 0.334377
vt 0.702072 0.945572
vt 0.702072 0.334377
vt 0.583964 0.334377
vt 0.583964 0.945572
vt 0.884332 1.487566
vt 0.885501 1.518508
vt 0.936265 1.519712
vt 0.936265 1.487571
vt 0.732382 0.945572
vt 0.732383 0.334377
vt 0.696685 0.334377
vt 0.696685 0.945572
vt 0.578577 0.334377
vt 0.578577 0.945572
vt 0.610906 1.237611
vt 0.773550 1.243733
vt 0.775035 1.253701
vt 0.584541 1.253701
vt 0.610750 0.027666
vt 0.560171 0.027666
vt 0.560170 0.822284
vt 0.610749 0.822284
vt 0.392829 0.027666
vt 0.392828 0.822284
vt 0.828670 0.822284
vt 0.828670 0.027666
vt 0.778092 0.027666
vt 0.778091 0.822284
s 1
usemtl wood.002
f 3/1/1 1/2/1 2/3/1 4/4/1
f 30/5/2 3/6/2 4/7/2 31/8/2
f 5/9/3 7/10/3 8/11/3 6/12/3
f 28/13/4 1/14/4 3/15/4 30/16/4
f 31/17/5 4/18/5 2/19/5 29/20/5
f 9/21/6 11/22/6 12/23/6 10/24/6
f 9/25/7 63/26/7 67/27/7 11/28/7
f 20/29/8 16/30/8 14/31/8 18/32/8
f 17/33/9 13/34/9 15/35/9 19/36/9
f 14/37/10 16/38/10 15/39/10 13/40/10
f 19/41/11 15/42/11 16/43/11 20/44/11
f 14/45/12 13/46/12 17/47/12 18/48/12
f 64/49/13 24/50/13 23/51/13 68/52/13
f 1/53/14 28/54/14 29/55/14 2/56/14
f 7/57/15 49/58/16 51/59/17 8/60/15
f 32/61/18 34/62/18 35/63/18 33/64/18
f 41/65/19 40/66/19 33/67/19 35/68/19
f 47/69/20 46/70/20 36/71/20 38/72/20
f 47/73/21 38/74/21 39/75/21 45/76/21
f 38/77/22 36/78/22 37/79/22 39/80/22
f 40/66/23 43/81/23 32/82/23 33/67/23
f 45/83/24 39/84/24 37/85/24 44/86/24
f 32/87/25 43/88/25 42/89/25 34/90/25
f 35/68/26 34/90/26 42/89/26 41/65/26
f 36/91/27 46/92/27 44/86/27 37/85/27
f 62/93/28 65/94/28 10/95/28 12/96/28
f 5/97/29 50/98/30 49/58/31 7/57/29
f 48/99/32 51/59/33 52/100/34 26/101/34
f 50/102/35 5/103/36 6/104/36 48/105/37
f 51/59/17 49/58/16 27/106/38 52/100/38
f 49/58/31 50/98/30 25/107/39 27/106/39
f 25/108/40 50/102/35 48/105/37 26/109/40
f 8/60/41 51/59/33 48/99/32 6/110/41
f 60/29/42 56/30/42 54/31/42 58/32/42
f 57/33/43 53/34/43 55/35/43 59/36/43
f 54/37/44 56/38/44 55/39/44 53/40/44
f 59/41/45 55/42/45 56/43/45 60/44/45
f 54/45/46 53/46/46 57/47/46 58/48/46
f 22/111/47 21/112/47 66/113/47 61/114/47
f 21/115/48 24/116/48 64/117/48 66/118/48
f 65/94/49 63/119/49 9/120/49 10/95/49
f 61/114/50 68/52/50 23/51/50 22/111/50
f 62/121/51 67/122/51 63/123/51 65/124/51
f 68/125/52 61/126/52 66/127/52 64/128/52
f 12/96/53 11/28/53 67/27/53 62/93/53
f 19/129/54 20/130/54 18/131/54 17/132/54
f 24/133/55 21/134/55 22/135/55 23/136/55
f 27/137/56 25/138/56 26/139/56 52/140/56
f 29/141/57 28/142/57 30/143/57 31/144/57
f 43/145/58 40/146/58 41/147/58 42/148/58
f 44/149/59 46/150/59 47/151/59 45/152/59
f 59/153/60 60/154/60 58/155/60 57/156/60
f 76/157/61 75/158/61 69/159/61 71/160/61
f 76/161/62 71/162/62 72/163/62 74/164/62
f 71/165/63 69/166/63 70/167/63 72/168/63
f 74/169/64 72/170/64 70/171/64 73/172/64
f 69/173/65 75/174/65 73/172/65 70/171/65
f 73/175/66 75/176/66 76/177/66 74/178/66
f 84/179/61 83/180/61 77/181/61 79/182/61
f 84/183/62 79/184/62 80/185/62 82/186/62
f 79/187/67 77/188/67 78/189/67 80/190/67
f 82/191/64 80/192/64 78/193/64 81/194/64
f 77/195/65 83/196/65 81/194/65 78/193/65
f 81/197/66 83/198/66 84/199/66 82/200/66
f 85/61/68 87/62/68 88/63/68 86/64/68
f 90/201/69 89/202/69 86/203/69 88/204/69
f 89/202/70 92/205/70 85/206/70 86/203/70
f 85/207/71 92/208/71 91/209/71 87/210/71
f 88/204/72 87/210/72 91/209/72 90/201/72
f 92/145/73 89/146/73 90/147/73 91/148/73
